<?xml version="1.0" standalone="no"?>
<!DOCTYPE svg PUBLIC "-//W3C//DTD SVG 20010904//EN"
 "http://www.w3.org/TR/2001/REC-SVG-20010904/DTD/svg10.dtd">
<svg version="1.0" xmlns="http://www.w3.org/2000/svg"
 width="400.000000pt" height="400.000000pt" viewBox="0 0 400.000000 400.000000"
 preserveAspectRatio="xMidYMid meet">
<metadata>
Created by potrace 1.14, written by Peter Selinger 2001-2017
</metadata>
<g transform="translate(0.000000,400.000000) scale(0.100000,-0.100000)"
fill="#000000" stroke="none">
<path d="M0 2000 l0 -2000 895 0 c752 0 895 2 895 14 0 21 -48 163 -71 209
-36 71 -106 170 -156 219 -62 60 -157 108 -216 108 -25 0 -121 -23 -213 -50
-203 -61 -305 -73 -399 -45 -167 48 -215 113 -215 291 0 100 -9 127 -61 174
-33 31 -39 43 -39 76 0 21 7 52 15 68 15 28 14 31 -14 60 -62 65 -63 122 -4
220 41 67 46 57 -58 116 -76 43 -155 116 -164 152 -11 45 21 91 166 239 143
146 189 208 189 256 0 16 -16 50 -36 80 -20 29 -40 69 -45 90 -14 62 -10 163
10 243 35 137 146 382 220 486 43 59 153 185 158 180 2 -2 26 19 52 47 l48 50
-15 39 c-15 38 -15 39 16 71 31 32 42 70 23 81 -5 3 -16 -5 -25 -19 -20 -31
-48 -23 -46 14 3 41 2 42 -26 25 -34 -23 -53 -6 -36 31 17 36 16 38 -17 32
-21 -4 -31 -2 -35 9 -10 25 -7 32 14 39 28 9 25 21 -10 34 -39 13 -39 40 0 48
36 7 38 15 8 35 -33 22 -17 52 22 44 34 -6 37 0 15 31 -13 18 -13 22 1 34 12
10 20 10 35 1 30 -19 39 -14 33 18 -8 39 20 53 42 21 20 -28 34 -27 34 3 0 29
38 44 47 18 3 -9 7 -24 10 -32 3 -12 8 -10 24 9 25 30 49 21 49 -19 0 -29 13
-40 25 -20 9 14 43 12 48 -2 2 -7 -3 -23 -11 -35 -15 -24 -13 -26 31 -23 26 1
33 -9 28 -45 -1 -5 6 -1 14 9 21 27 19 41 -7 58 -24 16 -17 38 11 38 30 0 45
25 31 50 -16 30 0 46 28 29 17 -10 23 -10 36 0 9 8 16 22 16 32 0 28 20 33 36
10 19 -27 50 -27 64 -1 14 25 30 26 30 1 0 -24 28 -54 44 -48 51 22 50 22 43
-11 -9 -43 0 -62 28 -62 33 0 41 -19 16 -36 -27 -19 -27 -48 1 -66 26 -17 17
-38 -17 -38 -18 0 -26 -7 -31 -24 -3 -14 -3 -30 1 -35 3 -6 3 -16 -1 -22 -3
-6 -14 2 -26 21 -14 24 -23 30 -36 25 -59 -26 -91 -28 -132 -12 -39 15 -75 14
-65 -3 2 -4 -4 -15 -14 -24 -23 -21 -37 -5 -19 23 9 15 9 23 -1 35 -20 24 -39
20 -34 -8 4 -21 1 -25 -23 -28 -34 -4 -43 -24 -14 -33 15 -5 20 -14 18 -28 -2
-18 -9 -21 -35 -19 -36 4 -42 -8 -17 -29 9 -8 36 -12 69 -10 47 2 54 0 60 -19
4 -13 12 -19 23 -16 70 21 184 46 217 49 29 1 40 -2 43 -14 2 -12 -7 -17 -40
-21 -47 -6 -196 -45 -215 -56 -18 -12 -4 -48 23 -61 20 -9 34 -6 80 14 65 29
80 31 88 10 3 -8 15 -15 26 -15 17 0 19 -4 14 -27 -4 -16 -15 -45 -25 -65 -34
-68 -17 -108 55 -128 57 -16 68 -29 64 -76 -3 -35 -6 -38 -61 -59 -85 -31 -95
-58 -55 -141 l23 -46 45 7 c96 13 104 28 35 72 -47 29 -54 47 -32 77 11 15 19
16 57 7 25 -6 51 -11 58 -11 20 0 14 31 -15 73 -20 29 -24 43 -17 55 23 36 39
36 88 2 59 -40 71 -32 55 40 -10 48 -10 55 7 67 29 21 41 16 75 -32 45 -62 52
-60 72 23 11 43 15 47 42 47 28 0 31 -3 44 -57 16 -71 32 -74 69 -13 23 39 31
44 52 39 39 -9 43 -18 31 -75 -13 -60 -1 -79 34 -54 11 8 33 22 48 31 27 14
30 14 48 -2 24 -22 24 -28 -6 -72 -27 -40 -33 -72 -12 -72 6 0 32 5 57 11 38
9 46 8 57 -7 22 -30 15 -48 -32 -77 -51 -33 -57 -54 -17 -62 84 -18 87 -20 90
-52 3 -31 2 -32 -52 -43 -68 -14 -78 -28 -41 -54 71 -52 70 -52 57 -80 -12
-26 -14 -27 -72 -20 -70 8 -75 -1 -35 -60 31 -45 31 -47 3 -74 l-23 -21 -39
30 c-65 48 -80 39 -64 -36 9 -43 8 -50 -8 -62 -30 -22 -48 -15 -77 32 -16 25
-33 45 -38 45 -12 0 -26 -34 -34 -82 -5 -35 -8 -38 -40 -38 -31 0 -34 2 -40
43 -8 47 -21 77 -34 77 -5 0 -22 -20 -38 -45 -29 -47 -47 -54 -78 -31 -16 12
-17 18 -6 61 15 58 3 78 -32 55 -73 -45 -74 -46 -96 -26 -27 25 -27 29 9 80
38 57 63 63 91 24 14 -20 25 -26 32 -19 6 6 3 19 -12 37 -15 19 -18 30 -11 40
23 26 -8 22 -43 -7 -19 -16 -38 -25 -41 -21 -3 5 -30 4 -61 -1 -30 -6 -57 -8
-59 -6 -2 2 -7 16 -11 30 -6 24 -1 31 40 59 25 17 44 37 42 43 -2 7 -29 18
-60 26 -50 12 -57 16 -57 37 0 30 -7 30 -40 -1 l-27 -26 -62 27 c-80 35 -98
27 -130 -55 l-24 -62 -45 3 -45 3 -22 60 c-29 77 -50 86 -131 50 l-58 -25 -32
31 -32 31 24 52 c41 87 34 105 -52 140 -48 20 -60 29 -64 52 l-5 27 -36 -40
c-103 -114 -236 -376 -284 -559 -28 -108 -16 -254 25 -299 24 -25 50 -87 50
-116 0 -50 -50 -118 -197 -270 -84 -87 -155 -169 -159 -182 -3 -16 1 -35 11
-50 19 -29 136 -112 212 -151 l52 -26 -49 -82 c-67 -109 -65 -152 8 -206 l39
-28 -23 -34 c-35 -51 -31 -87 15 -135 50 -52 61 -88 61 -199 1 -147 34 -198
157 -236 117 -36 205 -27 433 45 63 20 143 39 178 42 57 5 68 3 136 -31 141
-69 271 -241 340 -450 14 -43 26 -85 26 -92 0 -12 111 -14 705 -14 397 0 705
4 705 9 0 5 -12 35 -26 67 -84 188 -235 567 -289 725 -44 130 -49 163 -30 232
30 114 119 239 344 482 143 154 220 281 263 432 19 66 23 102 23 238 0 182
-14 262 -75 440 -85 247 -146 353 -282 489 -60 61 -85 92 -76 97 18 11 42 -5
115 -79 97 -99 173 -220 234 -374 65 -166 84 -232 110 -383 36 -205 13 -408
-66 -581 -20 -43 -39 -81 -43 -84 -4 -3 -22 -28 -39 -55 -18 -28 -40 -59 -50
-70 -101 -113 -199 -221 -203 -225 -3 -3 -33 -39 -66 -80 -127 -157 -170 -247
-160 -336 8 -71 73 -244 271 -729 20 -50 50 -118 66 -152 l28 -63 356 0 355 0
0 2000 0 2000 -1040 0 c-1008 0 -1040 -1 -1040 -19 0 -14 6 -17 25 -13 27 5
34 -15 13 -36 -9 -9 -6 -12 15 -12 31 0 35 -17 10 -35 -15 -11 -15 -13 5 -19
27 -9 28 -26 2 -33 -23 -6 -25 -14 -9 -30 16 -16 3 -32 -20 -26 -15 4 -18 0
-14 -21 6 -29 1 -31 -28 -16 -16 9 -19 7 -19 -10 0 -22 -35 -29 -43 -7 -3 8
-9 6 -19 -7 -16 -21 -38 -14 -38 11 0 14 -3 14 -21 -3 -16 -15 -22 -16 -29 -5
-4 8 -6 20 -3 28 4 11 -1 12 -22 7 -26 -6 -27 -5 -21 20 5 21 3 26 -12 26 -28
0 -34 11 -16 31 16 17 16 19 0 25 -20 8 -21 34 -1 34 17 0 20 16 5 25 -19 12
9 34 33 27 19 -5 20 -4 9 11 -19 22 -6 38 24 31 14 -4 24 -2 24 5 0 8 -244 11
-885 11 l-885 0 0 -2000z m2754 1973 c5 -12 9 -14 18 -5 18 18 38 14 38 -8 0
-17 5 -19 25 -14 27 7 35 -12 13 -34 -9 -9 -7 -12 10 -12 12 0 26 -10 33 -22
10 -18 9 -20 -5 -15 -21 8 -20 -2 2 -19 16 -13 16 -15 -2 -29 -16 -12 -17 -18
-8 -27 18 -18 15 -28 -8 -28 -17 0 -19 -4 -14 -26 6 -25 5 -26 -20 -20 -21 5
-26 3 -26 -13 0 -26 -15 -34 -30 -16 -16 19 -30 10 -30 -18 -1 -21 -2 -20 -24
6 -20 24 -24 26 -30 12 -8 -21 -26 -10 -26 16 0 16 -5 18 -27 13 -75 -18 -90
-32 -72 -65 16 -30 -9 -56 -39 -40 -31 16 -41 14 -48 -13 -7 -31 -36 -43 -49
-21 -28 46 -31 48 -54 36 -33 -18 -53 2 -45 43 5 28 2 34 -20 44 -33 15 -33
37 -1 58 21 14 25 23 23 53 -3 36 -3 36 35 34 31 -2 40 2 49 22 14 32 45 32
59 1 10 -21 17 -24 65 -22 58 2 78 12 51 27 -21 12 -13 29 12 29 14 0 17 6 13
26 -4 25 -3 26 22 20 22 -5 26 -3 26 14 0 21 15 27 25 10 9 -15 25 -12 25 5 0
20 26 19 34 -2z m603 -12 c5 -21 39 -35 49 -20 10 16 35 10 32 -8 -4 -27 10
-43 38 -43 24 0 34 -23 14 -35 -15 -9 -12 -23 10 -42 11 -10 20 -23 20 -29 0
-6 -9 -14 -20 -17 -21 -5 -27 -31 -10 -42 20 -12 10 -35 -14 -35 -28 0 -42
-16 -38 -42 4 -20 -18 -24 -34 -8 -13 13 -40 4 -48 -16 -7 -19 13 -51 37 -58
10 -2 21 -14 24 -25 3 -11 12 -22 20 -25 10 -4 13 -14 9 -31 -4 -14 -2 -25 4
-25 5 0 10 -9 10 -20 0 -11 -5 -20 -10 -20 -6 0 -8 -10 -4 -24 4 -15 1 -27 -8
-33 -8 -4 -17 -16 -21 -26 -4 -9 -15 -20 -24 -24 -10 -4 -22 -13 -26 -21 -6
-9 -18 -12 -33 -8 -14 4 -24 2 -24 -4 0 -5 -9 -10 -20 -10 -11 0 -20 5 -20 11
0 6 -8 8 -19 4 -10 -3 -25 0 -33 7 -8 7 -23 18 -33 24 -11 7 -19 19 -17 28 2
9 -4 16 -11 16 -17 0 -30 27 -21 41 3 6 0 16 -6 24 -10 12 -10 18 -1 29 7 8
11 20 10 28 -3 27 1 38 16 38 18 0 18 5 5 31 -14 24 -37 25 -45 0 -9 -28 -33
-34 -45 -11 -8 15 -19 19 -43 17 -30 -2 -32 0 -31 31 1 20 -3 32 -11 32 -7 0
-19 7 -26 16 -11 14 -10 18 6 31 13 9 20 26 20 46 0 30 2 32 33 29 24 -2 32 1
32 13 0 27 31 30 50 5 14 -19 20 -21 38 -11 17 9 23 8 35 -10 8 -11 18 -16 21
-11 9 16 -4 41 -25 47 -25 8 -24 25 0 32 24 6 36 32 21 47 -19 19 -11 39 14
34 26 -5 36 7 36 43 0 20 24 26 35 9 11 -18 35 -10 45 15 11 30 30 33 37 6z
m-1407 -331 c0 -5 -2 -10 -4 -10 -3 0 -8 5 -11 10 -3 6 -1 10 4 10 6 0 11 -4
11 -10z m280 0 c0 -5 13 -7 31 -3 25 5 31 2 36 -15 3 -13 10 -19 20 -15 14 5
35 -16 33 -32 -3 -16 52 -42 110 -54 70 -14 90 -25 74 -41 -7 -7 -31 -6 -75 5
-81 19 -97 19 -81 3 15 -15 16 -48 2 -48 -6 0 -8 -11 -4 -26 5 -20 2 -26 -15
-31 -15 -4 -20 -11 -16 -21 8 -20 -12 -41 -34 -35 -13 3 -20 -2 -24 -17 -5
-18 -11 -21 -31 -16 -15 4 -26 2 -26 -4 0 -13 -37 -13 -45 0 -3 6 -17 7 -31 4
-20 -5 -26 -2 -31 15 -3 12 -10 21 -17 20 -28 -3 -36 3 -36 26 0 15 -6 25 -14
25 -19 0 -27 25 -13 39 9 9 8 15 -5 22 -22 12 -23 35 -3 43 22 8 -2 56 -27 56
-32 0 -17 34 16 38 16 2 35 10 43 18 8 8 20 14 27 14 8 0 19 7 27 16 8 9 21
13 35 10 13 -4 26 -2 29 4 8 13 45 13 45 0z m-725 -50 c0 -30 -30 -40 -37 -12
-3 11 -17 21 -31 24 -21 4 -27 0 -32 -19 -7 -29 -29 -26 -33 4 -4 25 12 30 83
29 46 -1 50 -3 50 -26z m322 -37 c3 -7 -16 -12 -54 -15 -68 -5 -73 -3 -47 17
22 17 95 16 101 -2z m1014 -53 c20 -6 57 -28 81 -50 37 -32 45 -44 42 -67 -4
-23 -3 -25 5 -8 8 19 10 18 20 -10 21 -51 24 -156 7 -197 -39 -91 -137 -158
-231 -157 -59 0 -120 19 -120 36 0 16 -36 42 -51 36 -22 -8 -26 18 -5 33 12 8
21 20 21 26 0 7 -7 3 -15 -8 -14 -18 -15 -18 -40 9 -47 49 -56 112 -29 195 43
132 177 200 315 162z m-2224 -192 c-2 -13 -4 -5 -4 17 -1 22 1 32 4 23 2 -10
2 -28 0 -40z m78 -178 c3 -5 1 -10 -4 -10 -6 0 -11 5 -11 10 0 6 2 10 4 10 3
0 8 -4 11 -10z m462 -859 c43 -20 73 -62 73 -101 0 -16 -6 -20 -30 -20 -16 0
-35 7 -42 16 -41 50 -48 54 -96 54 -37 0 -54 -5 -68 -21 -19 -21 -18 -21 3
-39 12 -10 49 -22 82 -28 77 -14 137 -45 156 -82 19 -36 19 -44 0 -84 -24 -49
-79 -76 -159 -76 -102 0 -165 37 -185 108 -8 27 -7 31 12 34 37 6 65 -3 70
-22 7 -28 55 -53 100 -53 55 0 87 17 87 47 0 27 -18 36 -120 61 -111 28 -140
52 -140 114 0 38 42 88 83 100 54 16 129 12 174 -8z m1753 -3 c29 -15 52 -36
65 -60 22 -41 19 -48 -21 -52 -22 -3 -36 4 -60 30 -26 28 -39 34 -74 34 -51 0
-80 -14 -80 -40 0 -23 20 -35 75 -44 116 -20 185 -66 185 -124 0 -39 -33 -86
-73 -105 -49 -24 -161 -23 -207 2 -38 20 -80 73 -80 102 0 15 8 19 38 19 30 0
40 -5 54 -29 29 -52 141 -63 173 -18 25 36 3 53 -97 77 -75 19 -99 30 -125 56
-18 17 -33 42 -33 53 0 98 149 155 260 99z m-1492 -66 l3 -73 37 30 c20 17 60
51 87 76 46 41 54 45 104 45 53 0 54 0 36 -20 -10 -11 -49 -46 -87 -77 -37
-31 -68 -60 -68 -63 0 -4 38 -52 85 -107 47 -56 85 -106 85 -112 0 -8 -16 -11
-47 -9 -46 3 -49 5 -113 85 -36 45 -70 82 -76 82 -26 2 -43 -36 -46 -99 l-3
-65 -40 0 -40 0 -3 193 -2 193 42 -3 43 -3 3 -73z m427 -117 l0 -190 -40 0
-40 0 -3 193 -2 193 42 -3 43 -3 0 -190z m183 33 l3 -158 99 0 100 0 0 -35 0
-36 -142 3 -143 3 -3 193 -2 193 42 -3 43 -3 3 -157z m353 140 c0 -13 1 -84 2
-158 l2 -135 100 -5 100 -5 0 -30 0 -30 -142 -3 -143 -3 0 196 0 195 40 0 c35
0 40 -3 41 -22z m417 -581 l33 -18 -3 -122 -3 -122 -35 -17 c-32 -17 -93 -18
-830 -18 -729 1 -798 2 -830 18 l-35 17 0 125 0 124 45 18 c42 16 105 17 835
15 738 -2 792 -3 823 -20z m-1348 -507 c0 -47 2 -50 25 -50 14 0 25 -4 25 -10
0 -5 -18 -10 -40 -10 l-40 0 0 53 c0 30 3 57 7 60 16 17 23 3 23 -43z m174 34
c18 -18 21 -56 6 -85 -12 -22 -68 -27 -88 -7 -17 17 -15 74 4 92 8 9 26 16 39
16 13 0 31 -7 39 -16z m129 -42 c19 -50 16 -86 -4 -49 -12 21 -48 22 -55 2 -4
-8 -12 -15 -19 -15 -10 0 -8 15 8 60 27 74 43 74 70 2z m129 41 c20 -18 23
-54 8 -84 -8 -14 -21 -19 -50 -19 l-40 0 0 60 0 60 32 0 c17 0 40 -7 50 -17z
m78 -43 c0 -33 -4 -60 -9 -60 -16 0 -19 26 -12 105 0 8 6 15 11 15 6 0 10 -27
10 -60z m75 30 c25 -38 35 -38 35 0 0 17 5 30 10 30 6 0 10 -27 10 -60 0 -69
-15 -78 -45 -27 l-19 32 -6 -29 c-8 -48 -25 -31 -28 29 -3 64 11 73 43 25z
m185 15 c17 -21 7 -29 -18 -14 -31 19 -54 5 -50 -33 2 -28 8 -34 31 -36 15 -2
27 1 27 7 0 6 -4 11 -10 11 -5 0 -10 5 -10 10 0 6 11 10 25 10 21 0 25 -5 25
-30 0 -29 -2 -30 -44 -30 -35 0 -48 5 -60 22 -9 12 -16 29 -16 38 0 9 7 26 16
38 18 26 65 30 84 7z m130 -95 c0 -5 -4 -10 -10 -10 -5 0 -10 5 -10 10 0 6 5
10 10 10 6 0 10 -4 10 -10z m50 0 c0 -5 -4 -10 -10 -10 -5 0 -10 5 -10 10 0 6
5 10 10 10 6 0 10 -4 10 -10z m60 0 c0 -5 -4 -10 -10 -10 -5 0 -10 5 -10 10 0
6 5 10 10 10 6 0 10 -4 10 -10z"/>
<path d="M2694 3855 c-15 -23 -15 -27 0 -50 38 -57 116 -12 88 50 -9 19 -19
25 -42 25 -21 0 -34 -8 -46 -25z"/>
<path d="M2566 3794 c-8 -22 -8 -24 7 -24 7 0 18 9 25 20 11 17 10 20 -7 20
-10 0 -22 -7 -25 -16z"/>
<path d="M2407 3772 c-25 -28 -21 -67 10 -91 30 -24 58 -20 86 12 21 24 16 64
-10 85 -24 18 -67 15 -86 -6z"/>
<path d="M2610 3750 c0 -5 5 -10 10 -10 6 0 10 5 10 10 0 6 -4 10 -10 10 -5 0
-10 -4 -10 -10z"/>
<path d="M3042 3688 c-32 -32 6 -96 51 -84 13 3 29 17 36 32 10 22 9 30 -5 45
-19 21 -64 25 -82 7z"/>
<path d="M3207 3666 c4 -18 0 -26 -17 -31 -15 -5 -19 -12 -15 -23 4 -10 8 -23
8 -29 1 -18 15 -16 34 3 9 8 22 13 30 10 7 -3 23 0 34 7 16 10 21 9 29 -3 14
-23 22 -6 11 24 -11 26 -34 35 -46 16 -12 -20 -34 -9 -37 17 -2 16 -10 29 -19
31 -13 2 -15 -3 -12 -22z"/>
<path d="M3228 3511 c-27 -24 -33 -36 -33 -71 0 -100 135 -136 181 -49 26 52
10 110 -37 135 -42 21 -75 17 -111 -15z m114 -18 c23 -20 24 -80 1 -105 -22
-24 -77 -24 -103 2 -44 44 -11 120 52 120 17 0 40 -7 50 -17z"/>
<path d="M3254 3465 c-4 -8 -3 -26 0 -40 5 -20 13 -25 36 -25 36 0 56 30 40
60 -13 24 -68 28 -76 5z m62 -34 c-4 -6 -16 -11 -27 -11 -21 0 -27 35 -6 43
16 6 41 -18 33 -32z"/>
<path d="M2208 3553 c7 -3 16 -2 19 1 4 3 -2 6 -13 5 -11 0 -14 -3 -6 -6z"/>
<path d="M2096 3498 c-14 -55 -7 -89 28 -124 30 -30 41 -34 84 -34 55 0 93 26
113 76 15 41 2 84 -25 84 -19 0 -21 -4 -18 -39 5 -50 -23 -81 -72 -81 -61 0
-89 57 -61 123 6 13 2 17 -18 17 -17 0 -26 -7 -31 -22z"/>
<path d="M2167 3492 c-34 -38 -11 -94 38 -94 30 0 65 32 65 58 0 22 -38 54
-63 54 -13 0 -31 -8 -40 -18z m61 -39 c-2 -10 -10 -18 -18 -18 -8 0 -16 8 -18
18 -2 12 3 17 18 17 15 0 20 -5 18 -17z"/>
<path d="M2890 3353 c0 -5 7 -18 15 -29 13 -18 14 -18 8 4 -5 22 -23 41 -23
25z"/>
<path d="M2942 3344 c10 -10 20 -16 22 -13 3 3 -5 11 -17 18 -21 13 -21 12 -5
-5z"/>
<path d="M2870 3325 c0 -5 5 -17 10 -25 5 -8 10 -10 10 -5 0 6 -5 17 -10 25
-5 8 -10 11 -10 5z"/>
<path d="M2824 3283 c11 -13 23 -23 28 -23 4 0 7 10 7 23 -1 18 -2 18 -6 4 -5
-18 -5 -18 -26 0 l-22 18 19 -22z"/>
<path d="M2750 3271 c0 -5 9 -19 20 -32 l21 -24 -16 33 c-15 31 -25 41 -25 23z"/>
<path d="M2800 3260 c6 -11 13 -20 16 -20 2 0 0 9 -6 20 -6 11 -13 20 -16 20
-2 0 0 -9 6 -20z"/>
<path d="M2725 3240 c4 -6 2 -17 -5 -25 -8 -10 -8 -15 0 -20 6 -4 14 -4 17 -1
4 3 1 6 -6 6 -7 0 -10 4 -6 10 3 5 13 6 21 3 14 -5 14 -3 3 16 -8 11 -17 21
-22 21 -4 0 -5 -5 -2 -10z"/>
<path d="M2650 3187 c0 -23 28 -34 43 -17 9 10 9 11 -1 5 -8 -4 -19 0 -27 11
-14 18 -14 18 -15 1z"/>
<path d="M2610 3173 c0 -5 8 -17 17 -28 14 -18 15 -18 9 -2 -3 10 -6 23 -6 28
0 5 -4 9 -10 9 -5 0 -10 -3 -10 -7z"/>
<path d="M2320 1530 l0 -80 30 0 30 0 0 80 0 80 -30 0 -30 0 0 -80z"/>
<path d="M2400 1531 l0 -81 30 0 31 0 -3 78 c-3 76 -3 77 -30 80 l-28 3 0 -80z"/>
<path d="M2474 1596 c-3 -7 -4 -42 -2 -77 3 -62 4 -64 31 -67 l27 -3 0 80 c0
80 0 81 -25 81 -14 0 -28 -6 -31 -14z"/>
<path d="M2550 1530 l0 -80 30 0 30 0 0 80 0 80 -30 0 -30 0 0 -80z"/>
<path d="M2630 1530 l0 -80 30 0 30 0 0 80 0 80 -30 0 -30 0 0 -80z"/>
<path d="M2710 1530 l0 -81 28 3 c27 3 27 4 27 78 0 74 0 75 -27 78 l-28 3 0
-81z"/>
<path d="M1183 1585 c-18 -20 -17 -125 1 -125 10 0 15 18 19 63 5 67 -1 83
-20 62z"/>
<path d="M1256 1584 c10 -8 13 -13 7 -9 -10 5 -13 -8 -13 -48 0 -40 4 -56 15
-61 12 -4 15 5 15 48 0 65 -7 86 -28 86 -13 0 -12 -3 4 -16z"/>
<path d="M1320 1530 c0 -59 2 -66 20 -66 18 0 20 7 20 68 0 61 -2 67 -20 65
-18 -1 -20 -8 -20 -67z"/>
<path d="M1412 1588 c-14 -14 -16 -128 -2 -128 6 0 10 10 11 23 1 21 1 21 9
-3 6 -17 8 -3 7 48 -1 74 -4 81 -25 60z"/>
<path d="M1482 1533 c2 -42 8 -68 16 -71 9 -3 12 15 12 67 0 57 -3 71 -15 71
-13 0 -15 -12 -13 -67z"/>
<path d="M1562 1527 c1 -59 2 -64 7 -27 l5 45 6 -45 c7 -43 7 -41 8 21 2 51
-2 68 -13 73 -13 4 -15 -6 -13 -67z"/>
<path d="M1710 1533 c0 -60 3 -71 15 -67 9 4 15 20 16 43 0 20 2 44 4 54 2 11
1 16 -2 13 -3 -3 -12 2 -19 12 -11 15 -13 7 -14 -55z"/>
<path d="M1796 1585 c-10 -26 -7 -113 4 -120 6 -4 11 11 11 37 l2 43 7 -40 c7
-34 8 -31 6 24 -1 62 -16 91 -30 56z m21 -27 c-3 -8 -6 -5 -6 6 -1 11 2 17 5
13 3 -3 4 -12 1 -19z"/>
<path d="M1863 1529 c-2 -60 0 -70 13 -65 9 3 18 6 20 6 11 0 2 103 -10 116
-8 8 -16 14 -18 14 -2 0 -4 -32 -5 -71z"/>
<path d="M1942 1533 c2 -53 6 -68 18 -68 12 0 16 15 18 68 3 62 1 67 -18 67
-19 0 -21 -5 -18 -67z"/>
<path d="M2100 1532 c0 -54 3 -69 15 -69 16 0 18 7 19 72 1 36 -12 65 -28 65
-3 0 -6 -31 -6 -68z m17 -34 c-3 -7 -5 -2 -5 12 0 14 2 19 5 13 2 -7 2 -19 0
-25z"/>
<path d="M2193 1593 c-9 -3 -13 -26 -13 -68 0 -55 3 -64 18 -62 14 1 17 9 14
51 -4 76 -6 83 -19 79z"/>
<path d="M2250 1529 c0 -58 2 -67 18 -65 14 2 18 15 20 69 3 61 2 66 -17 64
-19 -1 -21 -8 -21 -68z"/>
<path d="M1644 1582 c-11 -8 -19 -96 -9 -111 3 -6 12 -8 21 -4 11 4 14 20 13
64 -2 59 -5 65 -25 51z"/>
<path d="M2022 1529 c-2 -34 1 -60 8 -64 16 -10 26 3 12 17 -7 7 -12 21 -11
33 0 20 0 20 9 0 7 -15 9 -8 8 26 -2 67 -23 58 -26 -12z"/>
<path d="M1561 1176 c-21 -25 -10 -61 18 -61 31 0 50 28 35 53 -15 23 -38 26
-53 8z"/>
<path d="M1710 1149 c0 -5 5 -7 10 -4 6 3 10 8 10 11 0 2 -4 4 -10 4 -5 0 -10
-5 -10 -11z"/>
<path d="M1824 1176 c-11 -28 0 -61 20 -61 27 0 44 30 30 53 -15 22 -43 27
-50 8z"/>
<path d="M1797 3892 c-22 -24 -21 -45 1 -65 22 -20 56 -22 69 -4 21 27 22 48
3 67 -25 25 -52 25 -73 2z"/>
<path d="M1010 3742 c0 -8 -5 -12 -12 -10 -23 8 -57 -38 -52 -68 11 -62 47
-90 93 -72 54 20 68 82 27 123 -13 13 -27 21 -30 17 -4 -3 -11 0 -16 8 -7 11
-10 12 -10 2z"/>
<path d="M1213 3713 c-18 -7 -16 -23 2 -23 8 0 15 7 15 15 0 8 -1 15 -2 14 -2
0 -9 -3 -15 -6z"/>
<path d="M1122 3480 c3 -19 -1 -35 -10 -42 -12 -10 -19 -7 -38 17 -24 30 -28
27 -36 -20 -3 -15 6 -24 35 -37 49 -22 79 -10 99 41 l15 36 -35 18 -34 18 4
-31z"/>
<path d="M936 3209 c-20 -17 -35 -33 -33 -36 9 -9 57 18 67 37 18 34 5 34 -34
-1z"/>
<path d="M2314 2992 c-9 -21 -11 -22 -23 -8 -15 18 -31 21 -31 5 0 -18 52 -79
62 -73 5 3 7 12 4 19 -3 8 2 11 14 8 25 -7 35 14 11 22 -11 3 -21 16 -24 28
l-4 22 -9 -23z"/>
<path d="M2240 2950 c-12 -8 -13 -13 -2 -30 11 -19 11 -19 -6 -9 -24 15 -52 5
-59 -20 -3 -13 -10 -18 -21 -14 -12 5 -14 1 -9 -16 4 -18 3 -20 -8 -11 -18 15
-38 3 -31 -17 4 -11 1 -13 -14 -8 -30 9 -24 -11 10 -35 26 -18 31 -19 36 -6 3
8 2 21 -2 28 -6 10 -4 10 9 0 22 -19 40 -5 33 24 -6 22 -5 23 12 13 24 -15 52
-5 59 21 3 11 9 17 14 14 19 -11 29 7 15 28 -8 11 -12 27 -9 34 6 16 -5 18
-27 4z m-16 -82 c-3 -5 -12 -4 -20 3 -7 6 -11 15 -8 21 3 5 12 4 20 -3 7 -6
11 -15 8 -21z"/>
<path d="M2008 2782 c-21 -15 -37 -30 -38 -33 0 -4 9 -18 21 -33 26 -33 46
-24 24 11 -22 33 -9 44 15 13 22 -29 40 -19 21 11 -18 30 -3 38 18 10 24 -32
38 -10 15 24 -20 31 -29 31 -76 -3z"/>
<path d="M1924 2715 c-4 -8 -4 -22 0 -30 5 -13 2 -14 -15 -4 -18 9 -25 7 -41
-9 -17 -16 -18 -23 -8 -41 15 -30 64 -26 68 5 2 15 9 20 20 17 10 -2 25 4 35
14 15 17 15 21 1 41 -17 25 -52 29 -60 7z m-14 -75 c0 -5 -5 -10 -11 -10 -5 0
-7 5 -4 10 3 6 8 10 11 10 2 0 4 -4 4 -10z"/>
</g>
</svg>
